Anton.ufo
<glyph name="ampersand" format="1">
  <advance width="1110"/>
  <unicode hex="0026"/>
  <outline>
    <contour>
      <point x="70" y="386" type="qcurve" smooth="yes"/>
      <point x="70" y="281"/>
      <point x="125" y="120"/>
      <point x="217" y="26"/>
      <point x="329" y="-21"/>
      <point x="391" y="-21" type="qcurve" smooth="yes"/>
      <point x="464" y="-21"/>
      <point x="600" y="41"/>
      <point x="645" y="97" type="qcurve" smooth="no"/>
      <point x="682" y="0" type="line" smooth="no"/>
      <point x="1022" y="0" type="line" smooth="no"/>
      <point x="843" y="432" type="line" smooth="no"/>
      <point x="923" y="651"/>
      <point x="1040" y="744" type="qcurve" smooth="no"/>
      <point x="901" y="961" type="line" smooth="no"/>
      <point x="788" y="878"/>
      <point x="729" y="726" type="qcurve" smooth="no"/>
      <point x="666" y="875" type="line" smooth="no"/>
      <point x="901" y="1063"/>
      <point x="901" y="1273" type="qcurve" smooth="yes"/>
      <point x="901" y="1350"/>
      <point x="841" y="1472"/>
      <point x="741" y="1545"/>
      <point x="621" y="1582"/>
      <point x="556" y="1582" type="qcurve" smooth="yes"/>
      <point x="408" y="1582"/>
      <point x="208" y="1416"/>
      <point x="208" y="1262" type="qcurve" smooth="yes"/>
      <point x="208" y="1191"/>
      <point x="265" y="1006"/>
      <point x="308" y="921" type="qcurve" smooth="no"/>
      <point x="259" y="885"/>
      <point x="183" y="806"/>
      <point x="134" y="734"/>
      <point x="99" y="646"/>
      <point x="81" y="580"/>
      <point x="72" y="488"/>
      <point x="70" y="432"/>
    </contour>
    <contour>
      <point x="376" y="423" type="qcurve" smooth="yes"/>
      <point x="376" y="487"/>
      <point x="401" y="588"/>
      <point x="413.5" y="606.5" type="qcurve" smooth="yes"/>
      <point x="426" y="625" type="line" smooth="no"/>
      <point x="548" y="334" type="line" smooth="no"/>
      <point x="547" y="330"/>
      <point x="543" y="317"/>
      <point x="525" y="282"/>
      <point x="505" y="256"/>
      <point x="468" y="235"/>
      <point x="447" y="235" type="qcurve" smooth="yes"/>
      <point x="422" y="235"/>
      <point x="390" y="271"/>
      <point x="378" y="339"/>
      <point x="376" y="380"/>
      <point x="375.952" y="412.968" type="qcurve" smooth="yes"/>
      <point x="376" y="420"/>
    </contour>
    <contour>
      <point x="532" y="1273" type="qcurve" smooth="yes"/>
      <point x="532" y="1299"/>
      <point x="561" y="1336"/>
      <point x="586" y="1336" type="qcurve" smooth="yes"/>
      <point x="645" y="1336"/>
      <point x="645" y="1273" type="qcurve" smooth="yes"/>
      <point x="645" y="1229"/>
      <point x="610" y="1147"/>
      <point x="592.5" y="1128.5" type="qcurve" smooth="yes"/>
      <point x="575" y="1110" type="line" smooth="no"/>
      <point x="532" y="1219"/>
    </contour>
  </outline>
</glyph>
<glyph name="one" format="1">
  <advance width="707"/>
  <unicode hex="0031"/>
  <outline>
    <contour>
      <point x="346" y="1592" type="qcurve" smooth="no"/>
      <point x="629" y="1592" type="line" smooth="no"/>
      <point x="629" y="0" type="line" smooth="no"/>
      <point x="256" y="0" type="line" smooth="no"/>
      <point x="256" y="1160" type="line" smooth="no"/>
      <point x="244" y="1154"/>
      <point x="203" y="1136"/>
      <point x="88" y="1106"/>
      <point x="38" y="1106" type="qcurve" smooth="no"/>
      <point x="38" y="1106.02" type="line" smooth="no"/>
      <point x="38" y="1106.13" type="line" smooth="no"/>
      <point x="38" y="1106.32" type="line" smooth="no"/>
      <point x="38" y="1106.59" type="line" smooth="no"/>
      <point x="38" y="1106.94" type="line" smooth="no"/>
      <point x="38" y="1107.36" type="line" smooth="no"/>
      <point x="38" y="1107.6" type="line" smooth="no"/>
      <point x="38" y="1108.13" type="line" smooth="no"/>
      <point x="38" y="1108.73" type="line" smooth="no"/>
      <point x="38" y="1109.4" type="line" smooth="no"/>
      <point x="38" y="1109.76" type="line" smooth="no"/>
      <point x="38" y="1110.52" type="line" smooth="no"/>
      <point x="38" y="1111.34" type="line" smooth="no"/>
      <point x="38" y="1111.78" type="line" smooth="no"/>
      <point x="38" y="1112.7" type="line" smooth="no"/>
      <point x="38" y="1113.67" type="line" smooth="no"/>
      <point x="38" y="1114.7" type="line" smooth="no"/>
      <point x="38" y="1115.79" type="line" smooth="no"/>
      <point x="38" y="1116.93" type="line" smooth="no"/>
      <point x="38" y="1117.52" type="line" smooth="no"/>
      <point x="38" y="1118.73" type="line" smooth="no"/>
      <point x="38" y="1120" type="line" smooth="no"/>
      <point x="38" y="1120.65" type="line" smooth="no"/>
      <point x="38" y="1121.99" type="line" smooth="no"/>
      <point x="38" y="1122.68" type="line" smooth="no"/>
      <point x="38" y="1124.1" type="line" smooth="no"/>
      <point x="38" y="1124.82" type="line" smooth="no"/>
      <point x="38" y="1125.55" type="line" smooth="no"/>
      <point x="38" y="1127.06" type="line" smooth="no"/>
      <point x="38" y="1127.82" type="line" smooth="no"/>
      <point x="38" y="1128.6" type="line" smooth="no"/>
      <point x="38" y="1130.19" type="line" smooth="no"/>
      <point x="38" y="1131" type="line" smooth="no"/>
      <point x="38" y="1131.83" type="line" smooth="no"/>
      <point x="38" y="1132.66" type="line" smooth="no"/>
      <point x="38" y="1134.35" type="line" smooth="no"/>
      <point x="38" y="1135.21" type="line" smooth="no"/>
      <point x="38" y="1136.09" type="line" smooth="no"/>
      <point x="38" y="1136.97" type="line" smooth="no"/>
      <point x="38" y="1137.86" type="line" smooth="no"/>
      <point x="38" y="1138.76" type="line" smooth="no"/>
      <point x="38" y="1139.67" type="line" smooth="no"/>
      <point x="38" y="1140.59" type="line" smooth="no"/>
      <point x="38" y="1141.52" type="line" smooth="no"/>
      <point x="38" y="1143.41" type="line" smooth="no"/>
      <point x="38" y="1144.36" type="line" smooth="no"/>
      <point x="38" y="1145.33" type="line" smooth="no"/>
      <point x="38" y="1146.3" type="line" smooth="no"/>
      <point x="38" y="1147.29" type="line" smooth="no"/>
      <point x="38" y="1148.28" type="line" smooth="no"/>
      <point x="38" y="1149.28" type="line" smooth="no"/>
      <point x="38" y="1150.29" type="line" smooth="no"/>
      <point x="38" y="1151.31" type="line" smooth="no"/>
      <point x="38" y="1152.33" type="line" smooth="no"/>
      <point x="38" y="1153.37" type="line" smooth="no"/>
      <point x="38" y="1154.41" type="line" smooth="no"/>
      <point x="38" y="1155.46" type="line" smooth="no"/>
      <point x="38" y="1156.52" type="line" smooth="no"/>
      <point x="38" y="1157.59" type="line" smooth="no"/>
      <point x="38" y="1158.67" type="line" smooth="no"/>
      <point x="38" y="1159.75" type="line" smooth="no"/>
      <point x="38" y="1160.84" type="line" smooth="no"/>
      <point x="38" y="1161.94" type="line" smooth="no"/>
      <point x="38" y="1163.05" type="line" smooth="no"/>
      <point x="38" y="1164.17" type="line" smooth="no"/>
      <point x="38" y="1165.29" type="line" smooth="no"/>
      <point x="38" y="1166.42" type="line" smooth="no"/>
      <point x="38" y="1167.56" type="line" smooth="no"/>
      <point x="38" y="1168.71" type="line" smooth="no"/>
      <point x="38" y="1169.86" type="line" smooth="no"/>
      <point x="38" y="1171.02" type="line" smooth="no"/>
      <point x="38" y="1172.19" type="line" smooth="no"/>
      <point x="38" y="1173.36" type="line" smooth="no"/>
      <point x="38" y="1174.54" type="line" smooth="no"/>
      <point x="38" y="1175.73" type="line" smooth="no"/>
      <point x="38" y="1176.93" type="line" smooth="no"/>
      <point x="38" y="1178.13" type="line" smooth="no"/>
      <point x="38" y="1179.35" type="line" smooth="no"/>
      <point x="38" y="1180.56" type="line" smooth="no"/>
      <point x="38" y="1181.79" type="line" smooth="no"/>
      <point x="38" y="1183.02" type="line" smooth="no"/>
      <point x="38" y="1184.26" type="line" smooth="no"/>
      <point x="38" y="1185.5" type="line" smooth="no"/>
      <point x="38" y="1186.76" type="line" smooth="no"/>
      <point x="38" y="1188.01" type="line" smooth="no"/>
      <point x="38" y="1189.28" type="line" smooth="no"/>
      <point x="38" y="1190.55" type="line" smooth="no"/>
      <point x="38" y="1191.83" type="line" smooth="no"/>
      <point x="38" y="1193.12" type="line" smooth="no"/>
      <point x="38" y="1194.41" type="line" smooth="no"/>
      <point x="38" y="1195.71" type="line" smooth="no"/>
      <point x="38" y="1197.01" type="line" smooth="no"/>
      <point x="38" y="1198.32" type="line" smooth="no"/>
      <point x="38" y="1199.64" type="line" smooth="no"/>
      <point x="38" y="1200.96" type="line" smooth="no"/>
      <point x="38" y="1202.29" type="line" smooth="no"/>
      <point x="38" y="1203.63" type="line" smooth="no"/>
      <point x="38" y="1204.97" type="line" smooth="no"/>
      <point x="38" y="1206.32" type="line" smooth="no"/>
      <point x="38" y="1207.67" type="line" smooth="no"/>
      <point x="38" y="1209.03" type="line" smooth="no"/>
      <point x="38" y="1210.4" type="line" smooth="no"/>
      <point x="38" y="1211.77" type="line" smooth="no"/>
      <point x="38" y="1213.15" type="line" smooth="no"/>
      <point x="38" y="1214.54" type="line" smooth="no"/>
      <point x="38" y="1215.93" type="line" smooth="no"/>
      <point x="38" y="1217.33" type="line" smooth="no"/>
      <point x="38" y="1218.73" type="line" smooth="no"/>
      <point x="38" y="1220.14" type="line" smooth="no"/>
      <point x="38" y="1221.55" type="line" smooth="no"/>
      <point x="38" y="1222.97" type="line" smooth="no"/>
      <point x="38" y="1224.4" type="line" smooth="no"/>
      <point x="38" y="1225.83" type="line" smooth="no"/>
      <point x="38" y="1227.26" type="line" smooth="no"/>
      <point x="38" y="1228.71" type="line" smooth="no"/>
      <point x="38" y="1230.15" type="line" smooth="no"/>
      <point x="38" y="1231.61" type="line" smooth="no"/>
      <point x="38" y="1233.07" type="line" smooth="no"/>
      <point x="38" y="1234.53" type="line" smooth="no"/>
      <point x="38" y="1236" type="line" smooth="no"/>
      <point x="38" y="1237.48" type="line" smooth="no"/>
      <point x="38" y="1238.96" type="line" smooth="no"/>
      <point x="38" y="1240.45" type="line" smooth="no"/>
      <point x="38" y="1241.94" type="line" smooth="no"/>
      <point x="38" y="1243.44" type="line" smooth="no"/>
      <point x="38" y="1244.94" type="line" smooth="no"/>
      <point x="38" y="1246.45" type="line" smooth="no"/>
      <point x="38" y="1247.97" type="line" smooth="no"/>
      <point x="38" y="1249.48" type="line" smooth="no"/>
      <point x="38" y="1251.01" type="line" smooth="no"/>
      <point x="38" y="1252.54" type="line" smooth="no"/>
      <point x="38" y="1254.07" type="line" smooth="no"/>
      <point x="38" y="1255.62" type="line" smooth="no"/>
      <point x="38" y="1257.16" type="line" smooth="no"/>
      <point x="38" y="1258.71" type="line" smooth="no"/>
      <point x="38" y="1260.27" type="line" smooth="no"/>
      <point x="38" y="1261.83" type="line" smooth="no"/>
      <point x="38" y="1263.4" type="line" smooth="no"/>
      <point x="38" y="1264.97" type="line" smooth="no"/>
      <point x="38" y="1266.55" type="line" smooth="no"/>
      <point x="38" y="1268.13" type="line" smooth="no"/>
      <point x="38" y="1269.71" type="line" smooth="no"/>
      <point x="38" y="1271.31" type="line" smooth="no"/>
      <point x="38" y="1272.9" type="line" smooth="no"/>
      <point x="38" y="1274.51" type="line" smooth="no"/>
      <point x="38" y="1276.11" type="line" smooth="no"/>
      <point x="38" y="1277.73" type="line" smooth="no"/>
      <point x="38" y="1279.34" type="line" smooth="no"/>
      <point x="38" y="1280.97" type="line" smooth="no"/>
      <point x="38" y="1282.59" type="line" smooth="no"/>
      <point x="38" y="1284.23" type="line" smooth="no"/>
      <point x="38" y="1285.86" type="line" smooth="no"/>
      <point x="38" y="1287.51" type="line" smooth="no"/>
      <point x="38" y="1289.15" type="line" smooth="no"/>
      <point x="38" y="1290.81" type="line" smooth="no"/>
      <point x="38" y="1292.46" type="line" smooth="no"/>
      <point x="38" y="1294.13" type="line" smooth="no"/>
      <point x="38" y="1295.79" type="line" smooth="no"/>
      <point x="38" y="1297.47" type="line" smooth="no"/>
      <point x="38" y="1299.14" type="line" smooth="no"/>
      <point x="38" y="1300.82" type="line" smooth="no"/>
      <point x="38" y="1302.51" type="line" smooth="no"/>
      <point x="38" y="1304.2" type="line" smooth="no"/>
      <point x="38" y="1305.9" type="line" smooth="no"/>
      <point x="38" y="1307.6" type="line" smooth="no"/>
      <point x="38" y="1309.31" type="line" smooth="no"/>
      <point x="38" y="1311.02" type="line" smooth="no"/>
      <point x="38" y="1312.74" type="line" smooth="no"/>
      <point x="38" y="1314.46" type="line" smooth="no"/>
      <point x="38" y="1316.18" type="line" smooth="no"/>
      <point x="38" y="1317.91" type="line" smooth="no"/>
      <point x="38" y="1319.65" type="line" smooth="no"/>
      <point x="38" y="1321.39" type="line" smooth="no"/>
      <point x="38" y="1323.13" type="line" smooth="no"/>
      <point x="38" y="1324.88" type="line" smooth="no"/>
      <point x="38" y="1326.64" type="line" smooth="no"/>
      <point x="38" y="1328.4" type="line" smooth="no"/>
      <point x="38" y="1330.16" type="line" smooth="no"/>
      <point x="38" y="1331.93" type="line" smooth="no"/>
      <point x="38" y="1333.71" type="line" smooth="no"/>
      <point x="38" y="1335.49" type="line" smooth="no"/>
      <point x="38" y="1337.27" type="line" smooth="no"/>
      <point x="38" y="1339.06" type="line" smooth="no"/>
      <point x="38" y="1340.85" type="line" smooth="no"/>
      <point x="38" y="1342.65" type="line" smooth="no"/>
      <point x="38" y="1344.45" type="line" smooth="no"/>
      <point x="38" y="1346.26" type="line" smooth="no"/>
      <point x="38" y="1348.07" type="line" smooth="no"/>
      <point x="38" y="1349.88" type="line" smooth="no"/>
      <point x="38" y="1351.7" type="line" smooth="no"/>
      <point x="38" y="1353.53" type="line" smooth="no"/>
      <point x="38" y="1355.36" type="line" smooth="no"/>
      <point x="38" y="1357.19" type="line" smooth="no"/>
      <point x="38" y="1359.02" type="line" smooth="no"/>
      <point x="38" y="1360.86" type="line" smooth="no"/>
      <point x="38" y="1362.7" type="line" smooth="no"/>
      <point x="38" y="1364.54" type="line" smooth="no"/>
      <point x="38" y="1366.38" type="line" smooth="no"/>
      <point x="38" y="1368.22" type="line" smooth="no"/>
      <point x="38" y="1370.06" type="line" smooth="no"/>
      <point x="38" y="1379" type="line" smooth="no"/>
      <point x="66" y="1379"/>
      <point x="164" y="1409"/>
      <point x="270" y="1461"/>
      <point x="346" y="1545"/>
    </contour>
  </outline>
</glyph>
<glyph name="two" format="1">
  <advance width="1073"/>
  <unicode hex="0032"/>
  <outline>
    <contour>
      <point x="76" y="0" type="line" smooth="no"/>
      <point x="989" y="0" type="line" smooth="no"/>
      <point x="989" y="322" type="line" smooth="no"/>
      <point x="509" y="322" type="line" smooth="no"/>
      <point x="549" y="399"/>
      <point x="812" y="730"/>
      <point x="930" y="908"/>
      <point x="1001" y="1130"/>
      <point x="1001" y="1255" type="qcurve" smooth="yes"/>
      <point x="1001" y="1481"/>
      <point x="754" y="1716"/>
      <point x="539" y="1716" type="qcurve" smooth="yes"/>
      <point x="403" y="1716"/>
      <point x="221" y="1646"/>
      <point x="116" y="1496"/>
      <point x="72" y="1289"/>
      <point x="72" y="1139" type="qcurve" smooth="no"/>
      <point x="76" y="1034" type="line" smooth="no"/>
      <point x="446" y="1034" type="line" smooth="no"/>
      <point x="446" y="1243" type="line" smooth="yes"/>
      <point x="446" y="1395"/>
      <point x="534" y="1395" type="qcurve" smooth="yes"/>
      <point x="588" y="1395"/>
      <point x="629" y="1316"/>
      <point x="629" y="1249" type="qcurve" smooth="yes"/>
      <point x="629" y="1072"/>
      <point x="539" y="963" type="qcurve" smooth="yes"/>
      <point x="359.533" y="748.241"/>
      <point x="301.384" y="668.758" type="qcurve" smooth="yes"/>
      <point x="129.519" y="433.838"/>
      <point x="90.0448" y="229.377" type="qcurve" smooth="yes"/>
      <point x="76" y="156.63"/>
      <point x="76" y="82" type="qcurve" smooth="yes"/>
    </contour>
  </outline>
</glyph>
<glyph name="four" format="1">
  <advance width="1122"/>
  <unicode hex="0034"/>
  <outline>
    <contour>
      <point x="1051" y="575" type="line" smooth="no"/>
      <point x="981" y="575" type="line" smooth="no"/>
      <point x="981" y="1592" type="line" smooth="no"/>
      <point x="423" y="1592" type="line" smooth="no"/>
      <point x="70" y="537" type="line" smooth="no"/>
      <point x="70" y="270" type="line" smooth="no"/>
      <point x="612" y="270" type="line" smooth="no"/>
      <point x="612" y="-1" type="line" smooth="no"/>
      <point x="981" y="-1" type="line" smooth="no"/>
      <point x="981" y="270" type="line" smooth="no"/>
      <point x="1051" y="270" type="line" smooth="no"/>
    </contour>
    <contour>
      <point x="414" y="575" type="line" smooth="no"/>
      <point x="612" y="1299" type="line" smooth="no"/>
      <point x="612" y="575" type="line" smooth="no"/>
    </contour>
  </outline>
</glyph>
<glyph name="seven" format="1">
  <advance width="1018"/>
  <unicode hex="0037"/>
  <outline>
    <contour>
      <point x="141" y="1" type="qcurve" smooth="no"/>
      <point x="162" y="1"/>
      <point x="275" y="0"/>
      <point x="306" y="0" type="qcurve" smooth="yes"/>
      <point x="539" y="1" type="line" smooth="no"/>
      <point x="551" y="188"/>
      <point x="620" y="540"/>
      <point x="705" y="796"/>
      <point x="803" y="1041"/>
      <point x="885" y="1215"/>
      <point x="947" y="1388"/>
      <point x="954" y="1451" type="qcurve" smooth="no"/>
      <point x="954" y="1706" type="line" smooth="no"/>
      <point x="66" y="1706" type="line" smooth="no"/>
      <point x="66" y="1389" type="line" smooth="no"/>
      <point x="563" y="1389" type="line" smooth="no"/>
      <point x="543" y="1315"/>
      <point x="340" y="829"/>
      <point x="233" y="535"/>
      <point x="153" y="178"/>
    </contour>
  </outline>
</glyph>
<glyph name="B" format="1">
  <advance width="1012"/>
  <unicode hex="0042"/>
  <outline>
    <contour>
      <point x="80" y="0" type="line" smooth="no"/>
      <point x="557" y="0" type="line" smooth="yes"/>
      <point x="670" y="0"/>
      <point x="823" y="69"/>
      <point x="909" y="210"/>
      <point x="944" y="390"/>
      <point x="944" y="516" type="qcurve" smooth="yes"/>
      <point x="944" y="565"/>
      <point x="940" y="635"/>
      <point x="917" y="739"/>
      <point x="877" y="810"/>
      <point x="799" y="874"/>
      <point x="744" y="887" type="qcurve" smooth="no"/>
      <point x="782" y="896"/>
      <point x="840" y="932"/>
      <point x="878" y="970"/>
      <point x="904" y="1030"/>
      <point x="917" y="1071"/>
      <point x="924" y="1143"/>
      <point x="924" y="1177"/>
      <point x="924.056" y="1211.75" type="qcurve" smooth="yes"/>
      <point x="924" y="1223"/>
      <point x="924" y="1229" type="qcurve" smooth="yes"/>
      <point x="924" y="1428"/>
      <point x="744" y="1593"/>
      <point x="557" y="1593" type="qcurve" smooth="yes"/>
      <point x="80" y="1593" type="line" smooth="no"/>
    </contour>
    <contour>
      <point x="424" y="745" type="line" smooth="no"/>
      <point x="489" y="745" type="line" smooth="yes"/>
      <point x="545" y="745"/>
      <point x="596" y="674"/>
      <point x="596" y="598" type="qcurve" smooth="yes"/>
      <point x="596" y="399" type="line" smooth="yes"/>
      <point x="596" y="281"/>
      <point x="459" y="281" type="qcurve" smooth="yes"/>
      <point x="448" y="281"/>
      <point x="424" y="283" type="qcurve" smooth="no"/>
    </contour>
    <contour>
      <point x="424" y="993" type="line" smooth="no"/>
      <point x="424" y="1346" type="line" smooth="no"/>
      <point x="498" y="1346" type="line" smooth="yes"/>
      <point x="573" y="1346"/>
      <point x="573" y="1270" type="qcurve" smooth="yes"/>
      <point x="573" y="1112" type="line" smooth="yes"/>
      <point x="573" y="1089"/>
      <point x="569" y="1056"/>
      <point x="555" y="1015"/>
      <point x="522" y="993"/>
      <point x="496" y="993" type="qcurve" smooth="yes"/>
    </contour>
  </outline>
</glyph>
<glyph name="N" format="1">
  <advance width="1020"/>
  <unicode hex="004e"/>
  <outline>
    <contour>
      <point x="940" y="1593" type="line" smooth="no"/>
      <point x="600" y="1593" type="line" smooth="no"/>
      <point x="600" y="831" type="line" smooth="no"/>
      <point x="438" y="1593" type="line" smooth="no"/>
      <point x="76" y="1593" type="line" smooth="no"/>
      <point x="76" y="0" type="line" smooth="no"/>
      <point x="420" y="0" type="line" smooth="no"/>
      <point x="420" y="797" type="line" smooth="no"/>
      <point x="596" y="0" type="line" smooth="no"/>
      <point x="940" y="0" type="line" smooth="no"/>
    </contour>
  </outline>
</glyph>
<glyph name="i" format="1">
  <advance width="487"/>
  <unicode hex="0069"/>
  <outline>
    <contour>
      <point x="65" y="0" type="line" smooth="no"/>
      <point x="423" y="0" type="line" smooth="no"/>
      <point x="423" y="1500" type="line" smooth="no"/>
      <point x="65" y="1500" type="line" smooth="no"/>
    </contour>
    <contour>
      <point x="65" y="1567" type="line" smooth="no"/>
      <point x="423" y="1567" type="line" smooth="no"/>
      <point x="423" y="1769" type="line" smooth="no"/>
      <point x="65" y="1769" type="line" smooth="no"/>
    </contour>
  </outline>
</glyph>
<glyph name="j" format="1">
  <advance width="565"/>
  <unicode hex="006a"/>
  <outline>
    <contour>
      <point x="129" y="1500" type="line" smooth="no"/>
      <point x="129" y="156" type="line" smooth="yes"/>
      <point x="129" y="120"/>
      <point x="111" y="85"/>
      <point x="86" y="85" type="qcurve" smooth="yes"/>
      <point x="69" y="85"/>
      <point x="53" y="90" type="qcurve" smooth="no"/>
      <point x="53" y="-150" type="line" smooth="no"/>
      <point x="90" y="-176"/>
      <point x="205" y="-176" type="qcurve" smooth="yes"/>
      <point x="352" y="-176"/>
      <point x="487" y="-3"/>
      <point x="487" y="166" type="qcurve" smooth="yes"/>
      <point x="487" y="1500" type="line" smooth="no"/>
    </contour>
    <contour>
      <point x="129" y="1567" type="line" smooth="no"/>
      <point x="487" y="1567" type="line" smooth="no"/>
      <point x="487" y="1769" type="line" smooth="no"/>
      <point x="129" y="1769" type="line" smooth="no"/>
    </contour>
  </outline>
</glyph>
<glyph name="n" format="1">
  <advance width="1012"/>
  <unicode hex="006e"/>
  <outline>
    <contour>
      <point x="67" y="0" type="line" smooth="no"/>
      <point x="425" y="0" type="line" smooth="no"/>
      <point x="425" y="1055" type="line" smooth="yes"/>
      <point x="425" y="1081"/>
      <point x="426" y="1113"/>
      <point x="436" y="1173"/>
      <point x="453" y="1210"/>
      <point x="489" y="1239"/>
      <point x="515" y="1239" type="qcurve" smooth="yes"/>
      <point x="557" y="1239"/>
      <point x="595" y="1167"/>
      <point x="595" y="1120" type="qcurve" smooth="yes"/>
      <point x="595" y="0" type="line" smooth="no"/>
      <point x="948" y="0" type="line" smooth="no"/>
      <point x="948" y="1157" type="line" smooth="yes"/>
      <point x="948" y="1341"/>
      <point x="792" y="1518"/>
      <point x="651" y="1518" type="qcurve" smooth="yes"/>
      <point x="566" y="1518"/>
      <point x="447" y="1426"/>
      <point x="425" y="1329" type="qcurve" smooth="no"/>
      <point x="425" y="1501" type="line" smooth="no"/>
      <point x="67" y="1501" type="line" smooth="no"/>
    </contour>
  </outline>
</glyph>
<glyph name="r" format="1">
  <advance width="920"/>
  <unicode hex="0072"/>
  <outline>
    <contour>
      <point x="67" y="0" type="line" smooth="no"/>
      <point x="425" y="0" type="line" smooth="no"/>
      <point x="425" y="1147" type="line" smooth="yes"/>
      <point x="425" y="1187"/>
      <point x="465" y="1233"/>
      <point x="491" y="1233" type="qcurve" smooth="yes"/>
      <point x="516" y="1233"/>
      <point x="543" y="1199"/>
      <point x="548" y="1162"/>
      <point x="548" y="1135" type="qcurve" smooth="yes"/>
      <point x="548" y="776" type="line" smooth="no"/>
      <point x="898" y="776" type="line" smooth="no"/>
      <point x="898" y="1278" type="line" smooth="yes"/>
      <point x="898" y="1395"/>
      <point x="746" y="1518"/>
      <point x="646" y="1518" type="qcurve" smooth="yes"/>
      <point x="563" y="1518"/>
      <point x="455" y="1436"/>
      <point x="425" y="1333" type="qcurve" smooth="no"/>
      <point x="425" y="1500" type="line" smooth="no"/>
      <point x="67" y="1500" type="line" smooth="no"/>
    </contour>
  </outline>
</glyph>
<glyph name="ordfeminine" format="1">
  <advance width="1018"/>
  <unicode hex="00aa"/>
  <outline>
    <contour>
      <point x="61.4268" y="744.257" type="qcurve" smooth="yes"/>
      <point x="61.4268" y="656.165"/>
      <point x="87.625" y="526.805"/>
      <point x="129.701" y="449.823"/>
      <point x="194.8" y="403.794"/>
      <point x="259.897" y="388.715"/>
      <point x="302.768" y="388.715" type="qcurve" smooth="yes"/>
      <point x="362.309" y="388.715"/>
      <point x="465.514" y="474.426"/>
      <point x="479.804" y="526.805" type="qcurve" smooth="no"/>
      <point x="479.804" y="403" type="line" smooth="no"/>
      <point x="762.427" y="403" type="line" smooth="no"/>
      <point x="762.427" y="1310.11" type="line" smooth="yes"/>
      <point x="762.427" y="1387.09"/>
      <point x="702.885" y="1506.13"/>
      <point x="604.443" y="1573.59"/>
      <point x="490.124" y="1607.71"/>
      <point x="428.995" y="1607.71" type="qcurve" smooth="yes"/>
      <point x="240.051" y="1607.71"/>
      <point x="78.8926" y="1449.79"/>
      <point x="78.8926" y="1279.95" type="qcurve" smooth="yes"/>
      <point x="78.8926" y="1254.55"/>
      <point x="79.6865" y="1241.06" type="qcurve" smooth="no"/>
      <point x="355.958" y="1241.06" type="line" smooth="no"/>
      <point x="355.958" y="1321.22" type="line" smooth="yes"/>
      <point x="355.958" y="1386.29"/>
      <point x="414.705" y="1386.29" type="qcurve" smooth="yes"/>
      <point x="423.438" y="1386.29"/>
      <point x="438.521" y="1383.12"/>
      <point x="449.636" y="1375.18"/>
      <point x="458.369" y="1365.66"/>
      <point x="465.514" y="1347.41"/>
      <point x="469.483" y="1332.33"/>
      <point x="472.659" y="1303.76"/>
      <point x="474.247" y="1279.95"/>
      <point x="475.04" y="1240.27"/>
      <point x="475.834" y="1208.52"/>
      <point x="475.822" y="1182.98" type="qcurve" smooth="yes"/>
      <point x="475.834" y="1181.54"/>
      <point x="475.834" y="1180.75" type="qcurve" smooth="yes"/>
      <point x="299.659" y="1120.49"/>
      <point x="249.056" y="1096.77" type="qcurve" smooth="yes"/>
      <point x="148.981" y="1049.87"/>
      <point x="108.364" y="981.54" type="qcurve" smooth="yes"/>
      <point x="61.4268" y="902.578"/>
    </contour>
    <contour>
      <point x="351.194" y="855.363" type="line" smooth="yes"/>
      <point x="351.194" y="909.329"/>
      <point x="402.003" y="987.897"/>
      <point x="475.04" y="1017.26" type="qcurve" smooth="no"/>
      <point x="475.04" y="703.782" type="line" smooth="yes"/>
      <point x="475.04" y="688.703"/>
      <point x="470.277" y="660.133"/>
      <point x="457.575" y="629.976"/>
      <point x="432.171" y="610.929"/>
      <point x="414.705" y="610.929" type="qcurve" smooth="yes"/>
      <point x="351.194" y="610.929"/>
      <point x="351.194" y="716.479" type="qcurve" smooth="yes"/>
    </contour>
  </outline>
</glyph>
<glyph name="uni00B5" format="1">
  <advance width="1034"/>
  <unicode hex="00b5"/>
  <outline>
    <contour>
      <point x="598" y="1500" type="line" smooth="no"/>
      <point x="596" y="455" type="line" smooth="yes"/>
      <point x="596" y="451"/>
      <point x="596.04" y="442.58" type="qcurve" smooth="yes"/>
      <point x="596" y="418"/>
      <point x="595" y="390"/>
      <point x="591" y="341"/>
      <point x="580" y="311"/>
      <point x="563" y="279"/>
      <point x="532" y="264"/>
      <point x="512" y="264" type="qcurve" smooth="yes"/>
      <point x="459" y="264"/>
      <point x="432" y="341"/>
      <point x="432" y="455" type="qcurve" smooth="yes"/>
      <point x="432" y="1500" type="line" smooth="no"/>
      <point x="72" y="1500" type="line" smooth="no"/>
      <point x="72" y="-186" type="line" smooth="no"/>
      <point x="432" y="-186" type="line" smooth="no"/>
      <point x="432" y="-11" type="line" smooth="no"/>
      <point x="483" y="-1"/>
      <point x="564" y="78"/>
      <point x="596" y="160" type="qcurve" smooth="no"/>
      <point x="596" y="0" type="line" smooth="no"/>
      <point x="954" y="0" type="line" smooth="no"/>
      <point x="954" y="1500" type="line" smooth="no"/>
    </contour>
  </outline>
</glyph>
<glyph name="paragraph" format="1">
  <advance width="981"/>
  <unicode hex="00b6"/>
  <outline>
    <contour>
      <point x="357" y="0" type="line" smooth="no"/>
      <point x="603" y="0" type="line" smooth="no"/>
      <point x="603" y="1287" type="line" smooth="no"/>
      <point x="697" y="1287" type="line" smooth="no"/>
      <point x="697" y="0" type="line" smooth="no"/>
      <point x="936" y="0" type="line" smooth="no"/>
      <point x="936" y="1593" type="line" smooth="no"/>
      <point x="561" y="1593" type="line" smooth="yes"/>
      <point x="458" y="1593"/>
      <point x="294" y="1569"/>
      <point x="155" y="1514"/>
      <point x="62" y="1427"/>
      <point x="10" y="1296"/>
      <point x="10" y="1210" type="qcurve" smooth="yes"/>
      <point x="10" y="1120"/>
      <point x="42" y="987"/>
      <point x="118" y="876"/>
      <point x="256" y="808"/>
      <point x="357" y="797" type="qcurve" smooth="no"/>
    </contour>
  </outline>
</glyph>
<glyph name="ordmasculine" format="1">
  <advance width="1036"/>
  <unicode hex="00ba"/>
  <outline>
    <contour>
      <point x="427.754" y="386.715" type="qcurve" smooth="yes"/>
      <point x="72.1504" y="386.715"/>
      <point x="72.1504" y="757.335" type="qcurve" smooth="yes"/>
      <point x="72.1504" y="1235.09" type="line" smooth="yes"/>
      <point x="72.1504" y="1405.72"/>
      <point x="262.652" y="1605.71"/>
      <point x="427.754" y="1605.71" type="qcurve" smooth="yes"/>
      <point x="593.648" y="1605.71"/>
      <point x="784.15" y="1405.72"/>
      <point x="784.15" y="1235.09" type="qcurve" smooth="yes"/>
      <point x="784.15" y="757.335" type="line" smooth="yes"/>
      <point x="784.15" y="570.835"/>
      <point x="602.38" y="386.715"/>
    </contour>
    <contour>
      <point x="361.078" y="1384.29"/>
      <point x="361.078" y="1280.33" type="qcurve" smooth="yes"/>
      <point x="361.078" y="698.607" type="line" smooth="yes"/>
      <point x="361.078" y="650.99"/>
      <point x="398.385" y="607.341"/>
      <point x="457.123" y="607.341"/>
      <point x="494.43" y="650.99"/>
      <point x="494.43" y="698.607" type="qcurve" smooth="yes"/>
      <point x="494.43" y="1280.33" type="line" smooth="yes"/>
      <point x="494.43" y="1384.29"/>
    </contour>
  </outline>
</glyph>
<glyph name="Adieresis" format="1">
  <advance width="1051"/>
  <unicode hex="00c4"/>
  <outline>
    <contour>
      <point x="801" y="1593" type="line" smooth="no"/>
      <point x="250" y="1593" type="line" smooth="no"/>
      <point x="70" y="0" type="line" smooth="no"/>
      <point x="412" y="0" type="line" smooth="no"/>
      <point x="434" y="240" type="line" smooth="no"/>
      <point x="612" y="240" type="line" smooth="no"/>
      <point x="637" y="0" type="line" smooth="no"/>
      <point x="977" y="0" type="line" smooth="no"/>
    </contour>
    <contour>
      <point x="538" y="1294" type="line" smooth="no"/>
      <point x="585" y="530" type="line" smooth="no"/>
      <point x="459" y="530" type="line" smooth="no"/>
      <point x="506" y="1294" type="line" smooth="no"/>
    </contour>
    <contour>
      <point x="104" y="1683" type="line" smooth="no"/>
      <point x="462" y="1683" type="line" smooth="no"/>
      <point x="462" y="1981" type="line" smooth="no"/>
      <point x="104" y="1981" type="line" smooth="no"/>
    </contour>
    <contour>
      <point x="588" y="1683" type="line" smooth="no"/>
      <point x="946" y="1683" type="line" smooth="no"/>
      <point x="946" y="1981" type="line" smooth="no"/>
      <point x="588" y="1981" type="line" smooth="no"/>
    </contour>
  </outline>
</glyph>
<glyph name="Aring" format="1">
  <advance width="1051"/>
  <unicode hex="00c5"/>
  <outline>
    <contour>
      <point x="801" y="1593" type="line" smooth="no"/>
      <point x="250" y="1593" type="line" smooth="no"/>
      <point x="70" y="0" type="line" smooth="no"/>
      <point x="412" y="0" type="line" smooth="no"/>
      <point x="434" y="240" type="line" smooth="no"/>
      <point x="612" y="240" type="line" smooth="no"/>
      <point x="637" y="0" type="line" smooth="no"/>
      <point x="977" y="0" type="line" smooth="no"/>
    </contour>
    <contour>
      <point x="538" y="1294" type="line" smooth="no"/>
      <point x="585" y="530" type="line" smooth="no"/>
      <point x="459" y="530" type="line" smooth="no"/>
      <point x="506" y="1294" type="line" smooth="no"/>
    </contour>
    <contour>
      <point x="384" y="1985.47"/>
      <point x="457" y="2079.47"/>
      <point x="595" y="2079.47"/>
      <point x="668" y="1985.47"/>
      <point x="668" y="1859.47"/>
      <point x="595" y="1765.47"/>
      <point x="457" y="1765.47"/>
      <point x="384" y="1859.47"/>
    </contour>
    <contour>
      <point x="172" y="1766.47"/>
      <point x="361" y="1584.47"/>
      <point x="689" y="1584.47"/>
      <point x="879" y="1766.47"/>
      <point x="879" y="2078.47"/>
      <point x="689" y="2260.47"/>
      <point x="361" y="2260.47"/>
      <point x="172" y="2078.47"/>
    </contour>
  </outline>
</glyph>
<glyph name="Eacute" format="1">
  <advance width="872"/>
  <unicode hex="00c9"/>
  <outline>
    <contour>
      <point x="72" y="0" type="line" smooth="no"/>
      <point x="799" y="0" type="line" smooth="no"/>
      <point x="799" y="311" type="line" smooth="no"/>
      <point x="430" y="311" type="line" smooth="no"/>
      <point x="430" y="674" type="line" smooth="no"/>
      <point x="762" y="674" type="line" smooth="no"/>
      <point x="762" y="973" type="line" smooth="no"/>
      <point x="430" y="973" type="line" smooth="no"/>
      <point x="430" y="1284" type="line" smooth="no"/>
      <point x="776" y="1284" type="line" smooth="no"/>
      <point x="776" y="1593" type="line" smooth="no"/>
      <point x="72" y="1593" type="line" smooth="no"/>
    </contour>
    <contour>
      <point x="172" y="1645" type="line" smooth="no"/>
      <point x="647" y="1739" type="line" smooth="no"/>
      <point x="647" y="2086" type="line" smooth="no"/>
      <point x="172" y="1868" type="line" smooth="no"/>
    </contour>
  </outline>
</glyph>
<glyph name="Ecircumflex" format="1">
  <advance width="872"/>
  <unicode hex="00ca"/>
  <outline>
    <contour>
      <point x="72" y="0" type="line" smooth="no"/>
      <point x="799" y="0" type="line" smooth="no"/>
      <point x="799" y="311" type="line" smooth="no"/>
      <point x="430" y="311" type="line" smooth="no"/>
      <point x="430" y="674" type="line" smooth="no"/>
      <point x="762" y="674" type="line" smooth="no"/>
      <point x="762" y="973" type="line" smooth="no"/>
      <point x="430" y="973" type="line" smooth="no"/>
      <point x="430" y="1284" type="line" smooth="no"/>
      <point x="776" y="1284" type="line" smooth="no"/>
      <point x="776" y="1593" type="line" smooth="no"/>
      <point x="72" y="1593" type="line" smooth="no"/>
    </contour>
    <contour>
      <point x="640" y="2086" type="line" smooth="no"/>
      <point x="232" y="2086" type="line" smooth="no"/>
      <point x="-9" y="1683" type="line" smooth="no"/>
      <point x="350" y="1683" type="line" smooth="no"/>
      <point x="436" y="1968" type="line" smooth="no"/>
      <point x="522" y="1683" type="line" smooth="no"/>
      <point x="881" y="1683" type="line" smooth="no"/>
    </contour>
  </outline>
</glyph>
<glyph name="Edieresis" format="1">
  <advance width="872"/>
  <unicode hex="00cb"/>
  <outline>
    <contour>
      <point x="72" y="0" type="line" smooth="no"/>
      <point x="799" y="0" type="line" smooth="no"/>
      <point x="799" y="311" type="line" smooth="no"/>
      <point x="430" y="311" type="line" smooth="no"/>
      <point x="430" y="674" type="line" smooth="no"/>
      <point x="762" y="674" type="line" smooth="no"/>
      <point x="762" y="973" type="line" smooth="no"/>
      <point x="430" y="973" type="line" smooth="no"/>
      <point x="430" y="1284" type="line" smooth="no"/>
      <point x="776" y="1284" type="line" smooth="no"/>
      <point x="776" y="1593" type="line" smooth="no"/>
      <point x="72" y="1593" type="line" smooth="no"/>
    </contour>
    <contour>
      <point x="15" y="1683" type="line" smooth="no"/>
      <point x="373" y="1683" type="line" smooth="no"/>
      <point x="373" y="1981" type="line" smooth="no"/>
      <point x="15" y="1981" type="line" smooth="no"/>
    </contour>
    <contour>
      <point x="499" y="1683" type="line" smooth="no"/>
      <point x="857" y="1683" type="line" smooth="no"/>
      <point x="857" y="1981" type="line" smooth="no"/>
      <point x="499" y="1981" type="line" smooth="no"/>
    </contour>
  </outline>
</glyph>
<glyph name="Igrave" format="1">
  <advance width="498"/>
  <unicode hex="00cc"/>
  <outline>
    <contour>
      <point x="76" y="0" type="line" smooth="no"/>
      <point x="416" y="0" type="line" smooth="no"/>
      <point x="416" y="1593" type="line" smooth="no"/>
      <point x="76" y="1593" type="line" smooth="no"/>
    </contour>
    <contour>
      <point x="470" y="1645" type="line" smooth="no"/>
      <point x="-5" y="1739" type="line" smooth="no"/>
      <point x="-5" y="2086" type="line" smooth="no"/>
      <point x="470" y="1868" type="line" smooth="no"/>
    </contour>
  </outline>
</glyph>
<glyph name="Idieresis" format="1">
  <advance width="498"/>
  <unicode hex="00cf"/>
  <outline>
    <contour>
      <point x="76" y="0" type="line" smooth="no"/>
      <point x="416" y="0" type="line" smooth="no"/>
      <point x="416" y="1593" type="line" smooth="no"/>
      <point x="76" y="1593" type="line" smooth="no"/>
    </contour>
    <contour>
      <point x="-172" y="1683" type="line" smooth="no"/>
      <point x="186" y="1683" type="line" smooth="no"/>
      <point x="186" y="1981" type="line" smooth="no"/>
      <point x="-172" y="1981" type="line" smooth="no"/>
    </contour>
    <contour>
      <point x="312" y="1683" type="line" smooth="no"/>
      <point x="670" y="1683" type="line" smooth="no"/>
      <point x="670" y="1981" type="line" smooth="no"/>
      <point x="312" y="1981" type="line" smooth="no"/>
    </contour>
  </outline>
</glyph>
<glyph name="multiply" format="1">
  <advance width="700"/>
  <unicode hex="00d7"/>
  <outline>
    <contour>
      <point x="203" y="314" type="line" smooth="no"/>
      <point x="350" y="461" type="line" smooth="no"/>
      <point x="497" y="314" type="line" smooth="no"/>
      <point x="661" y="478" type="line" smooth="no"/>
      <point x="514" y="625" type="line" smooth="no"/>
      <point x="661" y="772" type="line" smooth="no"/>
      <point x="497" y="936" type="line" smooth="no"/>
      <point x="350" y="789" type="line" smooth="no"/>
      <point x="203" y="936" type="line" smooth="no"/>
      <point x="39" y="772" type="line" smooth="no"/>
      <point x="186" y="625" type="line" smooth="no"/>
      <point x="39" y="478" type="line" smooth="no"/>
    </contour>
  </outline>
</glyph>
<glyph name="igrave" format="1">
  <advance width="514"/>
  <unicode hex="00ec"/>
  <outline>
    <contour>
      <point x="78" y="0" type="line" smooth="no"/>
      <point x="436" y="0" type="line" smooth="no"/>
      <point x="436" y="1500" type="line" smooth="no"/>
      <point x="78" y="1500" type="line" smooth="no"/>
    </contour>
    <contour>
      <point x="478" y="1553" type="line" smooth="no"/>
      <point x="3" y="1647" type="line" smooth="no"/>
      <point x="3" y="1994" type="line" smooth="no"/>
      <point x="478" y="1776" type="line" smooth="no"/>
    </contour>
  </outline>
</glyph>
<glyph name="iacute" format="1">
  <advance width="514"/>
  <unicode hex="00ed"/>
  <outline>
    <contour>
      <point x="78" y="0" type="line" smooth="no"/>
      <point x="436" y="0" type="line" smooth="no"/>
      <point x="436" y="1500" type="line" smooth="no"/>
      <point x="78" y="1500" type="line" smooth="no"/>
    </contour>
    <contour>
      <point x="-7" y="1553" type="line" smooth="no"/>
      <point x="468" y="1647" type="line" smooth="no"/>
      <point x="468" y="1994" type="line" smooth="no"/>
      <point x="-7" y="1776" type="line" smooth="no"/>
    </contour>
  </outline>
</glyph>
<glyph name="idieresis" format="1">
  <advance width="514"/>
  <unicode hex="00ef"/>
  <outline>
    <contour>
      <point x="78" y="0" type="line" smooth="no"/>
      <point x="436" y="0" type="line" smooth="no"/>
      <point x="436" y="1500" type="line" smooth="no"/>
      <point x="78" y="1500" type="line" smooth="no"/>
    </contour>
    <contour>
      <point x="-164" y="1591" type="line" smooth="no"/>
      <point x="194" y="1591" type="line" smooth="no"/>
      <point x="194" y="1889" type="line" smooth="no"/>
      <point x="-164" y="1889" type="line" smooth="no"/>
    </contour>
    <contour>
      <point x="320" y="1591" type="line" smooth="no"/>
      <point x="678" y="1591" type="line" smooth="no"/>
      <point x="678" y="1889" type="line" smooth="no"/>
      <point x="320" y="1889" type="line" smooth="no"/>
    </contour>
  </outline>
</glyph>
<glyph name="divide" format="1">
  <advance width="683"/>
  <unicode hex="00f7"/>
  <outline>
    <contour>
      <point x="34" y="638" type="line" smooth="no"/>
      <point x="650" y="638" type="line" smooth="no"/>
      <point x="650" y="870" type="line" smooth="no"/>
      <point x="34" y="870" type="line" smooth="no"/>
    </contour>
    <contour>
      <point x="193" y="237" type="line" smooth="no"/>
      <point x="491" y="237" type="line" smooth="no"/>
      <point x="491" y="535" type="line" smooth="no"/>
      <point x="193" y="535" type="line" smooth="no"/>
    </contour>
    <contour>
      <point x="193" y="976" type="line" smooth="no"/>
      <point x="491" y="976" type="line" smooth="no"/>
      <point x="491" y="1274" type="line" smooth="no"/>
      <point x="193" y="1274" type="line" smooth="no"/>
    </contour>
  </outline>
</glyph>
<glyph name="Lslash" format="1">
  <advance width="858"/>
  <unicode hex="0141"/>
  <outline>
    <contour>
      <point x="70" y="0" type="line" smooth="no"/>
      <point x="784" y="0" type="line" smooth="no"/>
      <point x="784" y="311" type="line" smooth="no"/>
      <point x="422" y="311" type="line" smooth="no"/>
      <point x="422" y="1593" type="line" smooth="no"/>
      <point x="70" y="1593" type="line" smooth="no"/>
    </contour>
    <contour>
      <point x="0" y="509" type="line" smooth="no"/>
      <point x="687" y="741" type="line" smooth="no"/>
      <point x="687" y="973" type="line" smooth="no"/>
      <point x="0" y="741" type="line" smooth="no"/>
    </contour>
  </outline>
</glyph>
<glyph name="lslash" format="1">
  <advance width="510"/>
  <unicode hex="0142"/>
  <outline>
    <contour>
      <point x="436" y="0" type="line" smooth="no"/>
      <point x="436" y="1767" type="line" smooth="no"/>
      <point x="72" y="1767" type="line" smooth="no"/>
      <point x="72" y="0" type="line" smooth="no"/>
    </contour>
    <contour>
      <point x="-3" y="509" type="line" smooth="no"/>
      <point x="513" y="741" type="line" smooth="no"/>
      <point x="513" y="973" type="line" smooth="no"/>
      <point x="-3" y="741" type="line" smooth="no"/>
    </contour>
  </outline>
</glyph>
<glyph name="uni0200" format="1">
  <advance width="1051"/>
  <unicode hex="0200"/>
  <outline>
    <contour>
      <point x="801" y="1593" type="line" smooth="no"/>
      <point x="250" y="1593" type="line" smooth="no"/>
      <point x="70" y="0" type="line" smooth="no"/>
      <point x="412" y="0" type="line" smooth="no"/>
      <point x="434" y="240" type="line" smooth="no"/>
      <point x="612" y="240" type="line" smooth="no"/>
      <point x="637" y="0" type="line" smooth="no"/>
      <point x="977" y="0" type="line" smooth="no"/>
    </contour>
    <contour>
      <point x="538" y="1294" type="line" smooth="no"/>
      <point x="585" y="530" type="line" smooth="no"/>
      <point x="459" y="530" type="line" smooth="no"/>
      <point x="506" y="1294" type="line" smooth="no"/>
    </contour>
    <contour>
      <point x="676.5" y="1729" type="line" smooth="no"/>
      <point x="428.5" y="2158" type="line" smooth="no"/>
      <point x="658.5" y="2266" type="line" smooth="no"/>
      <point x="842.5" y="1787" type="line" smooth="no"/>
    </contour>
    <contour>
      <point x="374.5" y="1729" type="line" smooth="no"/>
      <point x="85.5" y="2158" type="line" smooth="no"/>
      <point x="319.5" y="2266" type="line" smooth="no"/>
      <point x="540.5" y="1787" type="line" smooth="no"/>
    </contour>
  </outline>
</glyph>
<glyph name="uni0204" format="1">
  <advance width="872"/>
  <unicode hex="0204"/>
  <outline>
    <contour>
      <point x="72" y="0" type="line" smooth="no"/>
      <point x="799" y="0" type="line" smooth="no"/>
      <point x="799" y="311" type="line" smooth="no"/>
      <point x="430" y="311" type="line" smooth="no"/>
      <point x="430" y="674" type="line" smooth="no"/>
      <point x="762" y="674" type="line" smooth="no"/>
      <point x="762" y="973" type="line" smooth="no"/>
      <point x="430" y="973" type="line" smooth="no"/>
      <point x="430" y="1284" type="line" smooth="no"/>
      <point x="776" y="1284" type="line" smooth="no"/>
      <point x="776" y="1593" type="line" smooth="no"/>
      <point x="72" y="1593" type="line" smooth="no"/>
    </contour>
    <contour>
      <point x="575" y="1729" type="line" smooth="no"/>
      <point x="327" y="2158" type="line" smooth="no"/>
      <point x="557" y="2266" type="line" smooth="no"/>
      <point x="741" y="1787" type="line" smooth="no"/>
    </contour>
    <contour>
      <point x="273" y="1729" type="line" smooth="no"/>
      <point x="-16" y="2158" type="line" smooth="no"/>
      <point x="218" y="2266" type="line" smooth="no"/>
      <point x="439" y="1787" type="line" smooth="no"/>
    </contour>
  </outline>
</glyph>
<glyph name="uni0206" format="1">
  <advance width="872"/>
  <unicode hex="0206"/>
  <outline>
    <contour>
      <point x="72" y="0" type="line" smooth="no"/>
      <point x="799" y="0" type="line" smooth="no"/>
      <point x="799" y="311" type="line" smooth="no"/>
      <point x="430" y="311" type="line" smooth="no"/>
      <point x="430" y="674" type="line" smooth="no"/>
      <point x="762" y="674" type="line" smooth="no"/>
      <point x="762" y="973" type="line" smooth="no"/>
      <point x="430" y="973" type="line" smooth="no"/>
      <point x="430" y="1284" type="line" smooth="no"/>
      <point x="776" y="1284" type="line" smooth="no"/>
      <point x="776" y="1593" type="line" smooth="no"/>
      <point x="72" y="1593" type="line" smooth="no"/>
    </contour>
    <contour>
      <point x="371.5" y="1842"/>
      <point x="309.5" y="1788"/>
      <point x="309.5" y="1730" type="qcurve" smooth="no"/>
      <point x="-6.5" y="1729" type="line" smooth="no"/>
      <point x="-9.5" y="1750"/>
      <point x="-9.5" y="1771" type="qcurve" smooth="yes"/>
      <point x="-9.5" y="1915"/>
      <point x="220.5" y="2082"/>
      <point x="422.5" y="2082" type="qcurve" smooth="yes"/>
      <point x="628.5" y="2082"/>
      <point x="857.5" y="1912"/>
      <point x="857.5" y="1764" type="qcurve" smooth="yes"/>
      <point x="857.5" y="1753"/>
      <point x="855.5" y="1729" type="qcurve" smooth="no"/>
      <point x="539.5" y="1729"/>
      <point x="539.5" y="1730" type="qcurve" smooth="yes"/>
      <point x="539.5" y="1788"/>
      <point x="477.5" y="1842"/>
    </contour>
  </outline>
</glyph>
<glyph name="uni0208" format="1">
  <advance width="498"/>
  <unicode hex="0208"/>
  <outline>
    <contour>
      <point x="76" y="0" type="line" smooth="no"/>
      <point x="416" y="0" type="line" smooth="no"/>
      <point x="416" y="1593" type="line" smooth="no"/>
      <point x="76" y="1593" type="line" smooth="no"/>
    </contour>
    <contour>
      <point x="397" y="1729" type="line" smooth="no"/>
      <point x="149" y="2158" type="line" smooth="no"/>
      <point x="379" y="2266" type="line" smooth="no"/>
      <point x="563" y="1787" type="line" smooth="no"/>
    </contour>
    <contour>
      <point x="95" y="1729" type="line" smooth="no"/>
      <point x="-194" y="2158" type="line" smooth="no"/>
      <point x="40" y="2266" type="line" smooth="no"/>
      <point x="261" y="1787" type="line" smooth="no"/>
    </contour>
  </outline>
</glyph>
<glyph name="uni020A" format="1">
  <advance width="498"/>
  <unicode hex="020a"/>
  <outline>
    <contour>
      <point x="76" y="0" type="line" smooth="no"/>
      <point x="416" y="0" type="line" smooth="no"/>
      <point x="416" y="1593" type="line" smooth="no"/>
      <point x="76" y="1593" type="line" smooth="no"/>
    </contour>
    <contour>
      <point x="193.5" y="1842"/>
      <point x="131.5" y="1788"/>
      <point x="131.5" y="1730" type="qcurve" smooth="no"/>
      <point x="-184.5" y="1729" type="line" smooth="no"/>
      <point x="-187.5" y="1750"/>
      <point x="-187.5" y="1771" type="qcurve" smooth="yes"/>
      <point x="-187.5" y="1915"/>
      <point x="42.5" y="2082"/>
      <point x="244.5" y="2082" type="qcurve" smooth="yes"/>
      <point x="450.5" y="2082"/>
      <point x="679.5" y="1912"/>
      <point x="679.5" y="1764" type="qcurve" smooth="yes"/>
      <point x="679.5" y="1753"/>
      <point x="677.5" y="1729" type="qcurve" smooth="no"/>
      <point x="361.5" y="1729"/>
      <point x="361.5" y="1730" type="qcurve" smooth="yes"/>
      <point x="361.5" y="1788"/>
      <point x="299.5" y="1842"/>
    </contour>
  </outline>
</glyph>
<glyph name="uni020B" format="1">
  <advance width="514"/>
  <unicode hex="020b"/>
  <outline>
    <contour>
      <point x="78" y="0" type="line" smooth="no"/>
      <point x="436" y="0" type="line" smooth="no"/>
      <point x="436" y="1500" type="line" smooth="no"/>
      <point x="78" y="1500" type="line" smooth="no"/>
    </contour>
    <contour>
      <point x="204.5" y="1753"/>
      <point x="142.5" y="1699"/>
      <point x="142.5" y="1641" type="qcurve" smooth="no"/>
      <point x="-173.5" y="1640" type="line" smooth="no"/>
      <point x="-176.5" y="1661"/>
      <point x="-176.5" y="1682" type="qcurve" smooth="yes"/>
      <point x="-176.5" y="1826"/>
      <point x="53.5" y="1993"/>
      <point x="255.5" y="1993" type="qcurve" smooth="yes"/>
      <point x="461.5" y="1993"/>
      <point x="690.5" y="1823"/>
      <point x="690.5" y="1675" type="qcurve" smooth="yes"/>
      <point x="690.5" y="1664"/>
      <point x="688.5" y="1640" type="qcurve" smooth="no"/>
      <point x="372.5" y="1640"/>
      <point x="372.5" y="1641" type="qcurve" smooth="yes"/>
      <point x="372.5" y="1699"/>
      <point x="310.5" y="1753"/>
    </contour>
  </outline>
</glyph>
<glyph name="uni0211" format="1">
  <advance width="920"/>
  <unicode hex="0211"/>
  <outline>
    <contour>
      <point x="67" y="0" type="line" smooth="no"/>
      <point x="425" y="0" type="line" smooth="no"/>
      <point x="425" y="1147" type="line" smooth="yes"/>
      <point x="425" y="1187"/>
      <point x="465" y="1233"/>
      <point x="491" y="1233" type="qcurve" smooth="yes"/>
      <point x="516" y="1233"/>
      <point x="543" y="1199"/>
      <point x="548" y="1162"/>
      <point x="548" y="1135" type="qcurve" smooth="yes"/>
      <point x="548" y="776" type="line" smooth="no"/>
      <point x="898" y="776" type="line" smooth="no"/>
      <point x="898" y="1278" type="line" smooth="yes"/>
      <point x="898" y="1395"/>
      <point x="746" y="1518"/>
      <point x="646" y="1518" type="qcurve" smooth="yes"/>
      <point x="563" y="1518"/>
      <point x="455" y="1436"/>
      <point x="425" y="1333" type="qcurve" smooth="no"/>
      <point x="425" y="1500" type="line" smooth="no"/>
      <point x="67" y="1500" type="line" smooth="no"/>
    </contour>
    <contour>
      <point x="633.5" y="1640" type="line" smooth="no"/>
      <point x="385.5" y="2069" type="line" smooth="no"/>
      <point x="615.5" y="2177" type="line" smooth="no"/>
      <point x="799.5" y="1698" type="line" smooth="no"/>
    </contour>
    <contour>
      <point x="331.5" y="1640" type="line" smooth="no"/>
      <point x="42.5" y="2069" type="line" smooth="no"/>
      <point x="276.5" y="2177" type="line" smooth="no"/>
      <point x="497.5" y="1698" type="line" smooth="no"/>
    </contour>
  </outline>
</glyph>
<glyph name="uni0212" format="1">
  <advance width="1001"/>
  <unicode hex="0212"/>
  <outline>
    <contour>
      <point x="428" y="725" type="line" smooth="no"/>
      <point x="467" y="725"/>
      <point x="505" y="721"/>
      <point x="546" y="702"/>
      <point x="561" y="658"/>
      <point x="561" y="621" type="qcurve" smooth="yes"/>
      <point x="561" y="0" type="line" smooth="no"/>
      <point x="905" y="0" type="line" smooth="no"/>
      <point x="909" y="205"/>
      <point x="909" y="600" type="qcurve" smooth="yes"/>
      <point x="909" y="638"/>
      <point x="899" y="699"/>
      <point x="871" y="771"/>
      <point x="807" y="820"/>
      <point x="758" y="829" type="qcurve" smooth="no"/>
      <point x="807" y="844"/>
      <point x="876" y="900"/>
      <point x="910" y="958"/>
      <point x="929" y="1045"/>
      <point x="932" y="1102"/>
      <point x="932" y="1147" type="qcurve" smooth="yes"/>
      <point x="932" y="1233"/>
      <point x="920" y="1354"/>
      <point x="881" y="1475"/>
      <point x="813" y="1548"/>
      <point x="695" y="1593"/>
      <point x="612" y="1593" type="qcurve" smooth="yes"/>
      <point x="72" y="1593" type="line" smooth="no"/>
      <point x="72" y="0" type="line" smooth="no"/>
      <point x="428" y="0" type="line" smooth="no"/>
    </contour>
    <contour>
      <point x="430" y="1298" type="line" smooth="no"/>
      <point x="449" y="1298" type="line" smooth="yes"/>
      <point x="533" y="1298"/>
      <point x="588" y="1244"/>
      <point x="588" y="1147" type="qcurve" smooth="yes"/>
      <point x="588" y="1001"/>
      <point x="518" y="1001" type="qcurve" smooth="yes"/>
      <point x="430" y="1001" type="line" smooth="no"/>
    </contour>
    <contour>
      <point x="289.5" y="1842"/>
      <point x="227.5" y="1788"/>
      <point x="227.5" y="1730" type="qcurve" smooth="no"/>
      <point x="-88.5" y="1729" type="line" smooth="no"/>
      <point x="-91.5" y="1750"/>
      <point x="-91.5" y="1771" type="qcurve" smooth="yes"/>
      <point x="-91.5" y="1915"/>
      <point x="138.5" y="2082"/>
      <point x="340.5" y="2082" type="qcurve" smooth="yes"/>
      <point x="546.5" y="2082"/>
      <point x="775.5" y="1912"/>
      <point x="775.5" y="1764" type="qcurve" smooth="yes"/>
      <point x="775.5" y="1753"/>
      <point x="773.5" y="1729" type="qcurve" smooth="no"/>
      <point x="457.5" y="1729"/>
      <point x="457.5" y="1730" type="qcurve" smooth="yes"/>
      <point x="457.5" y="1788"/>
      <point x="395.5" y="1842"/>
    </contour>
  </outline>
</glyph>
<glyph name="uni021A" format="1">
  <advance width="903"/>
  <unicode hex="021a"/>
  <outline>
    <contour>
      <point x="66" y="1593" type="line" smooth="no"/>
      <point x="66" y="1286" type="line" smooth="no"/>
      <point x="275" y="1286" type="line" smooth="no"/>
      <point x="275" y="0" type="line" smooth="no"/>
      <point x="627" y="0" type="line" smooth="no"/>
      <point x="627" y="1286" type="line" smooth="no"/>
      <point x="836" y="1286" type="line" smooth="no"/>
      <point x="836" y="1593" type="line" smooth="no"/>
    </contour>
    <contour>
      <point x="264" y="-420" type="line" smooth="no"/>
      <point x="391" y="-420" type="line" smooth="no"/>
      <point x="325" y="-656" type="line" smooth="no"/>
      <point x="536" y="-656" type="line" smooth="no"/>
      <point x="638" y="-411" type="line" smooth="no"/>
      <point x="638" y="-122" type="line" smooth="no"/>
      <point x="264" y="-122" type="line" smooth="no"/>
    </contour>
  </outline>
</glyph>
<glyph name="Omega" format="1">
  <advance width="1014"/>
  <unicode hex="03a9"/>
  <outline>
    <contour>
      <point x="293" y="1607"/>
      <point x="83" y="1388"/>
      <point x="83" y="1189" type="qcurve" smooth="yes"/>
      <point x="83" y="710" type="line" smooth="yes"/>
      <point x="83" y="394"/>
      <point x="180" y="246" type="qcurve" smooth="no"/>
      <point x="58" y="246" type="line" smooth="no"/>
      <point x="58" y="0" type="line" smooth="no"/>
      <point x="474" y="0" type="line" smooth="no"/>
      <point x="474" y="247" type="line" smooth="no"/>
      <point x="448.118" y="261.379"/>
      <point x="442.081" y="270.761" type="qcurve" smooth="yes"/>
      <point x="425.034" y="297.257"/>
      <point x="422.79" y="442.298" type="qcurve" smooth="yes"/>
      <point x="422" y="493.396"/>
      <point x="422" y="581" type="qcurve" smooth="yes"/>
      <point x="422" y="1211" type="line" smooth="yes"/>
      <point x="422" y="1247"/>
      <point x="432" y="1296"/>
      <point x="472" y="1335"/>
      <point x="542" y="1335"/>
      <point x="582" y="1296"/>
      <point x="592" y="1247"/>
      <point x="592" y="1211" type="qcurve" smooth="yes"/>
      <point x="592" y="581" type="line" smooth="yes"/>
      <point x="592" y="424"/>
      <point x="584" y="298"/>
      <point x="569" y="262"/>
      <point x="546.074" y="250.306" type="qcurve" smooth="yes"/>
      <point x="542" y="248"/>
      <point x="540" y="247" type="qcurve" smooth="no"/>
      <point x="540" y="0" type="line" smooth="no"/>
      <point x="956" y="0" type="line" smooth="no"/>
      <point x="956" y="246" type="line" smooth="no"/>
      <point x="834" y="246" type="line" smooth="no"/>
      <point x="931" y="394"/>
      <point x="931" y="710" type="qcurve" smooth="yes"/>
      <point x="931" y="1189" type="line" smooth="yes"/>
      <point x="931" y="1388"/>
      <point x="721" y="1607"/>
    </contour>
  </outline>
</glyph>
<glyph name="pi" format="1">
  <advance width="514"/>
  <unicode hex="03c0"/>
  <outline>
    <contour>
      <point x="78" y="0" type="line" smooth="no"/>
      <point x="436" y="0" type="line" smooth="no"/>
      <point x="436" y="1500" type="line" smooth="no"/>
      <point x="78" y="1500" type="line" smooth="no"/>
    </contour>
    <contour>
      <point x="78" y="0" type="line" smooth="no"/>
      <point x="436" y="0" type="line" smooth="no"/>
      <point x="436" y="1500" type="line" smooth="no"/>
      <point x="78" y="1500" type="line" smooth="no"/>
    </contour>
  </outline>
</glyph>
<glyph name="quotedblbase" format="1">
  <advance width="967"/>
  <unicode hex="201e"/>
  <outline>
    <contour>
      <point x="533" y="0" type="line" smooth="no"/>
      <point x="660" y="0" type="line" smooth="no"/>
      <point x="594" y="-236" type="line" smooth="no"/>
      <point x="805" y="-236" type="line" smooth="no"/>
      <point x="907" y="9" type="line" smooth="no"/>
      <point x="907" y="298" type="line" smooth="no"/>
      <point x="533" y="298" type="line" smooth="no"/>
    </contour>
    <contour>
      <point x="60" y="0" type="line" smooth="no"/>
      <point x="187" y="0" type="line" smooth="no"/>
      <point x="121" y="-236" type="line" smooth="no"/>
      <point x="332" y="-236" type="line" smooth="no"/>
      <point x="434" y="9" type="line" smooth="no"/>
      <point x="434" y="298" type="line" smooth="no"/>
      <point x="60" y="298" type="line" smooth="no"/>
    </contour>
  </outline>
</glyph>
<glyph name="summation" format="1">
  <advance width="954"/>
  <unicode hex="2211"/>
  <outline>
    <contour>
      <point x="282" y="751" type="line" smooth="no"/>
      <point x="72" y="272" type="line" smooth="no"/>
      <point x="72" y="0" type="line" smooth="no"/>
      <point x="836" y="0" type="line" smooth="no"/>
      <point x="836" y="301" type="line" smooth="no"/>
      <point x="444" y="301" type="line" smooth="no"/>
      <point x="657" y="751" type="line" smooth="no"/>
      <point x="444" y="1200" type="line" smooth="no"/>
      <point x="836" y="1200" type="line" smooth="no"/>
      <point x="836" y="1501" type="line" smooth="no"/>
      <point x="72" y="1501" type="line" smooth="no"/>
      <point x="72" y="1229" type="line" smooth="no"/>
    </contour>
  </outline>
</glyph>
